<svg xmlns="http://www.w3.org/2000/svg" xmlns:xlink="http://www.w3.org/1999/xlink" viewBox="0 0 804.52 205.19"><defs><style>.cls-1{fill:#fff;}.cls-2{fill:url(#linear-gradient);}.cls-3{fill:url(#linear-gradient-2);}.cls-4{fill:url(#linear-gradient-3);}.cls-5{fill:url(#linear-gradient-4);}.cls-6{fill:url(#linear-gradient-5);}.cls-7{fill:url(#linear-gradient-6);}</style><linearGradient id="linear-gradient" x1="223.08" y1="169.14" x2="223.08" y2="203.7" gradientUnits="userSpaceOnUse"><stop offset="0" stop-color="#fff"/><stop offset="0.04" stop-color="#fcdbdb"/><stop offset="0.09" stop-color="#f7b0b0"/><stop offset="0.14" stop-color="#f48989"/><stop offset="0.2" stop-color="#f16767"/><stop offset="0.27" stop-color="#ee4b4b"/><stop offset="0.34" stop-color="#ec3434"/><stop offset="0.43" stop-color="#ea2222"/><stop offset="0.53" stop-color="#e91616"/><stop offset="0.67" stop-color="#e80f0f"/><stop offset="1" stop-color="#e80d0d"/></linearGradient><linearGradient id="linear-gradient-2" x1="223.04" y1="98.1" x2="223.04" y2="190.1" gradientUnits="userSpaceOnUse"><stop offset="0" stop-color="#fff"/><stop offset="0.1" stop-color="#fefafa"/><stop offset="0.23" stop-color="#fdeaea"/><stop offset="0.37" stop-color="#fbd1d1"/><stop offset="0.52" stop-color="#f7aeae"/><stop offset="0.68" stop-color="#f38181"/><stop offset="0.84" stop-color="#ee4a4a"/><stop offset="1" stop-color="#e80d0d"/></linearGradient><linearGradient id="linear-gradient-3" x1="582.17" y1="170.2" x2="582.17" y2="205.13" gradientUnits="userSpaceOnUse"><stop offset="0.01" stop-color="#fff"/><stop offset="0.01" stop-color="#fbfdfb"/><stop offset="0.1" stop-color="#ceedd2"/><stop offset="0.19" stop-color="#a6dead"/><stop offset="0.29" stop-color="#84d18f"/><stop offset="0.39" stop-color="#69c776"/><stop offset="0.51" stop-color="#53bf62"/><stop offset="0.63" stop-color="#44b955"/><stop offset="0.78" stop-color="#3cb64c"/><stop offset="1" stop-color="#39b54a"/></linearGradient><linearGradient id="linear-gradient-4" x1="582.14" y1="95.45" x2="582.14" y2="198.45" gradientUnits="userSpaceOnUse"><stop offset="0.01" stop-color="#fff"/><stop offset="0.11" stop-color="#f8fdf9"/><stop offset="0.26" stop-color="#e6f6e8"/><stop offset="0.43" stop-color="#c8ebcd"/><stop offset="0.63" stop-color="#9fdba7"/><stop offset="0.83" stop-color="#6ac777"/><stop offset="1" stop-color="#39b54a"/></linearGradient><linearGradient id="linear-gradient-5" x1="776.39" y1="191.36" x2="804.52" y2="191.36" gradientUnits="userSpaceOnUse"><stop offset="0.01" stop-color="#fff"/><stop offset="0.02" stop-color="#f6fcfc"/><stop offset="0.07" stop-color="#d2f1f0"/><stop offset="0.13" stop-color="#b2e7e5"/><stop offset="0.19" stop-color="#96dfdc"/><stop offset="0.26" stop-color="#80d8d5"/><stop offset="0.35" stop-color="#6fd3cf"/><stop offset="0.45" stop-color="#64d0cb"/><stop offset="0.6" stop-color="#5dcec9"/><stop offset="1" stop-color="#5bcdc8"/></linearGradient><linearGradient id="linear-gradient-6" x1="709.29" y1="191.37" x2="795.73" y2="191.37" gradientUnits="userSpaceOnUse"><stop offset="0.01" stop-color="#fff"/><stop offset="0.13" stop-color="#f9fdfd"/><stop offset="0.29" stop-color="#e9f8f8"/><stop offset="0.47" stop-color="#cef0ef"/><stop offset="0.67" stop-color="#a9e5e2"/><stop offset="0.87" stop-color="#7ad6d2"/><stop offset="0.99" stop-color="#5bcdc8"/></linearGradient></defs><g id="Layer_2" data-name="Layer 2"><g id="Layer_1-2" data-name="Layer 1"><path class="cls-1" d="M91.28,33l60.27,34.8v69.6l-60.27,34.8L31,137.39V67.79L91.28,33m0-33a18.08,18.08,0,0,0-9.06,2.43L9.06,44.66A18.12,18.12,0,0,0,0,60.36v84.47a18.12,18.12,0,0,0,9.06,15.69l73.16,42.24a18.09,18.09,0,0,0,18.11,0l73.16-42.24a18.12,18.12,0,0,0,9.06-15.69V60.36a18.12,18.12,0,0,0-9.06-15.7L100.33,2.43a18.07,18.07,0,0,0-9-2.43Z"/><path class="cls-2" d="M237,176.76l-12.48-7.21a3.08,3.08,0,0,0-3,0l-12.34,7a3.07,3.07,0,0,0-1.55,2.67l.08,14.2a3.09,3.09,0,0,0,1.53,2.64l12.48,7.2a3.05,3.05,0,0,0,3,0l12.34-7a3.08,3.08,0,0,0,1.55-2.68l-.08-14.2A3.06,3.06,0,0,0,237,176.76Z"/><path class="cls-1" d="M298.85,33l60.27,34.8v69.6l-60.27,34.8-60.28-34.8V67.79L298.85,33m0-33a18.08,18.08,0,0,0-9.06,2.43L216.63,44.66a18.12,18.12,0,0,0-9.06,15.7v84.47a18.12,18.12,0,0,0,9.06,15.69l73.16,42.24a18.1,18.1,0,0,0,18.12,0l73.15-42.24a18.12,18.12,0,0,0,9.06-15.69V60.36a18.12,18.12,0,0,0-9.06-15.7L307.91,2.43A18.14,18.14,0,0,0,298.85,0Z"/><path class="cls-3" d="M226.89,98.1H219.2a11.65,11.65,0,0,0-11.65,11.65v68.7A11.66,11.66,0,0,0,219.2,190.1h7.69a11.66,11.66,0,0,0,11.65-11.65v-68.7A11.65,11.65,0,0,0,226.89,98.1Z"/><path class="cls-4" d="M582.17,170.2a3.08,3.08,0,0,0-1.6.45l-12.32,7.51a3.1,3.1,0,0,0-1.47,2.63l.06,14.43a3.05,3.05,0,0,0,1.57,2.67l12.26,6.85a3.11,3.11,0,0,0,1.5.39,3,3,0,0,0,1.6-.45l12.32-7.51a3.07,3.07,0,0,0,1.47-2.63l0-14.43a3.08,3.08,0,0,0-1.58-2.67l-12.26-6.85a3.08,3.08,0,0,0-1.5-.39Z"/><path class="cls-1" d="M506.4,33l60.27,34.8v69.6l-60.27,34.8-60.28-34.8V67.79L506.4,33m0-33a18.08,18.08,0,0,0-9.06,2.43L424.18,44.66a18.12,18.12,0,0,0-9.06,15.7v84.47a18.12,18.12,0,0,0,9.06,15.69l73.16,42.24a18.1,18.1,0,0,0,18.12,0l73.15-42.24a18.12,18.12,0,0,0,9.06-15.69V60.36a18.12,18.12,0,0,0-9.06-15.7L515.46,2.43A18.14,18.14,0,0,0,506.4,0Z"/><path class="cls-5" d="M584.54,95.45h-4.8a13,13,0,0,0-13,13v77a13,13,0,0,0,13,13h4.8a13,13,0,0,0,13-13v-77a13,13,0,0,0-13-13Z"/><path class="cls-1" d="M784.75,204.71h11.41a2.52,2.52,0,0,0,2.21-1.32l5.84-10.84a2.48,2.48,0,0,0,0-2.39l-5.84-10.84a2.52,2.52,0,0,0-2.21-1.32H784.75a2.52,2.52,0,0,0-2.21,1.32l-5.85,10.84a2.53,2.53,0,0,0,0,2.39l5.85,10.84A2.52,2.52,0,0,0,784.75,204.71Z"/><path class="cls-6" d="M796.16,178H784.75a2.52,2.52,0,0,0-2.21,1.32l-5.85,10.84a2.53,2.53,0,0,0,0,2.39l5.85,10.84a2.52,2.52,0,0,0,2.21,1.32h11.41a2.52,2.52,0,0,0,2.21-1.32l5.84-10.84a2.48,2.48,0,0,0,0-2.39l-5.84-10.84a2.52,2.52,0,0,0-2.21-1.32Z"/><path class="cls-1" d="M713.58,33.6l59.75,34.5v69l-59.75,34.49-59.75-34.49v-69l59.75-34.5m0-33.18a18.08,18.08,0,0,0-9,2.41L631.69,44.9a18,18,0,0,0-9,15.63v84.13a18.06,18.06,0,0,0,9,15.63l72.86,42.06a18,18,0,0,0,18.05,0l72.86-42.06a18.06,18.06,0,0,0,9-15.63V60.53a18,18,0,0,0-9-15.63L722.6,2.83a18,18,0,0,0-9-2.41Z"/><path class="cls-7" d="M790.23,178H714.79a5.5,5.5,0,0,0-5.5,5.5v15.75a5.5,5.5,0,0,0,5.5,5.5h75.44a5.5,5.5,0,0,0,5.5-5.5V183.5a5.5,5.5,0,0,0-5.5-5.5Z"/></g></g></svg>